<svg id="Layer_1" data-name="Layer 1" xmlns="http://www.w3.org/2000/svg" viewBox="0 0 195.86 206.69"><defs><style>.cls-1{fill:#fff;}</style></defs><title>cooking-pot</title><path class="cls-1" d="M185.06,64.64c.2-8.56-16.51-4.48-16.51-4.48H27.07s-16.72-4.08-16.51,4.48,10.6,9.79,10.6,9.79v84.85S19.73,189.45,44,189.45H151.63c24.25,0,22.83-30.17,22.83-30.17V74.43S184.85,73.2,185.06,64.64Z"/><path class="cls-1" d="M169.93,50.65c-20.49-9.57-36.86-12.87-39.54-13.37-3.39-1.4-5.8-2.89-7.18-4.41a3.27,3.27,0,0,0-2.42-1.08h-46a3.29,3.29,0,0,0-2.42,1.08c-1.37,1.52-3.79,3-7.18,4.41-2.68.5-19,3.8-39.53,13.37a3.26,3.26,0,0,0,1.38,6.22H168.55a3.26,3.26,0,0,0,1.38-6.22Z"/><path class="cls-1" d="M119.57,28.11V26.83A17.07,17.07,0,0,0,102.5,9.77H93.11A17.06,17.06,0,0,0,76.05,26.83v1.28Z"/></svg>