<svg xmlns="http://www.w3.org/2000/svg" xmlns:xlink="http://www.w3.org/1999/xlink" viewBox="0 0 373 300.97">
  <defs>
    <style>
      .cls-1 {
        opacity: 0.949;
      }

      .cls-2 {
        fill: url(#linear-gradient);
      }

      .cls-3 {
        fill: #d32f2f;
        font-size: 66px;
        font-family: Pacifico-Regular, Pacifico;
      }

      .cls-4 {
        fill: none;
      }

      .cls-5 {
        filter: url(#InstantTimes);
      }
    </style>
    <linearGradient id="linear-gradient" x1="0.495" x2="0.5" y2="1" gradientUnits="objectBoundingBox">
      <stop offset="0" stop-color="#ffd740"/>
      <stop offset="0.67" stop-color="#ffb21a"/>
      <stop offset="1" stop-color="#ffa000"/>
    </linearGradient>
    <filter id="InstantTimes" x="0" y="182.97" width="373" height="118" filterUnits="userSpaceOnUse">
      <feOffset dx="2" dy="2" input="SourceAlpha"/>
      <feGaussianBlur result="blur"/>
      <feFlood flood-color="#fff" flood-opacity="0.867"/>
      <feComposite operator="in" in2="blur"/>
      <feComposite in="SourceGraphic"/>
    </filter>
  </defs>
  <g id="Group_5" data-name="Group 5" transform="translate(-775 -102)">
    <g id="Logo" transform="translate(33.252 9)">
      <g id="Group_1" data-name="Group 1" class="cls-1" transform="translate(800.396 93)">
        <path id="Union_2" data-name="Union 2" class="cls-2" d="M-2702.327,148.151h-74.85c-33.669,0-31.72-42.017-31.72-42.017V-11.846s-14.469-1.67-14.748-13.634,22.956-6.26,22.956-6.26h196.865s23.234-5.705,22.956,6.26c-.278,11.826-14.747,13.634-14.887,13.634v117.98s2.087,42.017-31.72,42.017Zm-98.223-184.343A4.606,4.606,0,0,1-2805-39.81a4.587,4.587,0,0,1,2.5-5.148c28.521-13.356,51.2-17.948,54.955-18.643,4.73-1.948,8.069-4.035,10.017-6.121a4.443,4.443,0,0,1,3.34-1.531h64a4.443,4.443,0,0,1,3.339,1.531c1.948,2.086,5.287,4.173,10.017,6.121,3.617.7,26.434,5.287,54.956,18.643a4.852,4.852,0,0,1,2.643,5.148,4.606,4.606,0,0,1-4.452,3.617Zm68.033-40.069v-1.809A23.962,23.962,0,0,1-2708.866-102h13.078A23.78,23.78,0,0,1-2672-78.209v1.948Z" transform="translate(2823.648 102)"/>
      </g>
      <g class="cls-5" transform="matrix(1, 0, 0, 1, 741.75, 93)">
        <text id="InstantTimes-2" data-name="InstantTimes" class="cls-3" transform="translate(4 268.97)"><tspan x="0" y="0">InstantTimes</tspan></text>
      </g>
      <rect id="Rectangle_613" data-name="Rectangle 613" class="cls-4" width="367.435" height="94.05" transform="translate(742.521 299.882)"/>
    </g>
  </g>
</svg>
